<?xml version="1.0" encoding="utf-8"?><!DOCTYPE svg PUBLIC "-//W3C//DTD SVG 1.1//EN" "http://www.w3.org/Graphics/SVG/1.1/DTD/svg11.dtd"><svg width="536" height="96" viewBox="0 0 536 96" xmlns="http://www.w3.org/2000/svg" xmlns:xlink="http://www.w3.org/1999/xlink"><svg viewBox="0 0 10 10" width="10" height="10" id="shared_asset_images_filters_QF_Categorical_Check" x="440" y="40"><path fill="#666" d="M4.2 9.4c-.2 0-.4-.1-.6-.3l-3-3L1.7 5 4 7.4 8 .7l1.3.8L4.8 9c-.1.2-.3.3-.6.4z"/></svg><svg width="16" height="16" viewBox="0 0 16 16" id="shared_asset_images_filters_QF_Categorical_CheckBox_Selected" x="135" y="40"><path d="M15 0H2c-.55 0-1 .45-1 1v13c0 .55.45 1 1 1h13c.55 0 1-.45 1-1V1c0-.55-.45-1-1-1zm0 14H2V1h13v13z" fill="#666"/><path fill="#FFF" d="M2 1h13v13H2z"/><path d="M7.7 11.8c-.2 0-.4-.1-.5-.2l-3-3 1.1-1.1 2.3 2.3 4-6.7 1.3.8-4.5 7.6c-.2.2-.4.3-.7.3z" fill="#666"/></svg><svg width="16" height="16" viewBox="0 0 16 16" id="shared_asset_images_filters_QF_Categorical_CheckBox_Selected_Active" x="215" y="40"><path d="M15 0H2c-.55 0-1 .45-1 1v13c0 .55.45 1 1 1h13c.55 0 1-.45 1-1V1c0-.55-.45-1-1-1zm0 14H2V1h13v13z" fill="#333"/><path fill="#FFF" d="M2 1h13v13H2z"/><path d="M7.7 11.8c-.2 0-.4-.1-.5-.2l-3-3 1.1-1.1 2.3 2.3 4-6.7 1.3.8-4.5 7.6c-.2.2-.4.3-.7.3z" fill="#333"/></svg><svg width="16" height="16" viewBox="0 0 16 16" id="shared_asset_images_filters_QF_Categorical_CheckBox_Unselected" x="155" y="40"><path d="M15 0H2c-.55 0-1 .45-1 1v13c0 .55.45 1 1 1h13c.55 0 1-.45 1-1V1c0-.55-.45-1-1-1zm0 14H2V1h13v13z" fill="#cbcbcb"/><path fill="#FFF" d="M2 1h13v13H2z"/></svg><svg width="16" height="16" viewBox="0 0 16 16" id="shared_asset_images_filters_QF_Categorical_CheckBox_Unselected_Active" x="175" y="40"><path d="M15 0H2c-.55 0-1 .45-1 1v13c0 .55.45 1 1 1h13c.55 0 1-.45 1-1V1c0-.55-.45-1-1-1zm0 14H2V1h13v13z" fill="#333"/><path fill="#FFF" d="M2 1h13v13H2z"/></svg><svg width="16" height="16" viewBox="0 0 16 16" id="shared_asset_images_filters_QF_Categorical_CheckBox_Unselected_Disabled" x="195" y="40"><path d="M15 0H2c-.55 0-1 .45-1 1v13c0 .55.45 1 1 1h13c.55 0 1-.45 1-1V1c0-.55-.45-1-1-1zm0 14H2V1h13v13z" fill="#cbcbcb"/><path fill="#FFF" d="M2 1h13v13H2z"/></svg><svg viewBox="0 0 10 10" width="10" height="10" id="shared_asset_images_filters_QF_Categorical_Check_Active" x="425" y="40"><path fill="#333" d="M4.2 9.4c-.2 0-.4-.1-.6-.3l-3-3L1.7 5 4 7.4 8 .7l1.3.8L4.8 9c-.1.2-.3.3-.6.4z"/></svg><svg viewBox="0 0 10 10" width="10" height="10" id="shared_asset_images_filters_QF_Categorical_Check_Active_White" x="410" y="40"><path fill="#FFF" d="M4.2 9.4c-.2 0-.4-.1-.6-.3l-3-3L1.7 5 4 7.4 8 .7l1.3.8L4.8 9c-.1.2-.3.3-.6.4z"/></svg><svg viewBox="0 0 10 10" width="10" height="10" id="shared_asset_images_filters_QF_Categorical_Check_White" x="395" y="40"><path fill="rgba(255, 255, 255, 0.8)" d="M4.2 9.4c-.2 0-.4-.1-.6-.3l-3-3L1.7 5 4 7.4 8 .7l1.3.8L4.8 9c-.1.2-.3.3-.6.4z"/></svg><svg viewBox="0 0 15 15" width="15" height="15" id="shared_asset_images_filters_QF_Categorical_RadioButton_Selected" x="375" y="40"><path d="M7.5 1C3.9 1 1 3.9 1 7.5S3.9 14 7.5 14 14 11.1 14 7.5 11.1 1 7.5 1z" fill="#FFF"/><path d="M7.5 2c3 0 5.5 2.5 5.5 5.5S10.5 13 7.5 13 2 10.5 2 7.5 4.5 2 7.5 2m0-1C3.9 1 1 3.9 1 7.5S3.9 14 7.5 14 14 11.1 14 7.5 11.1 1 7.5 1z" fill="#666766"/><circle cx="7.5" cy="7.5" r="2.5" fill="#666766"/></svg><svg viewBox="0 0 15 15" width="15" height="15" id="shared_asset_images_filters_QF_Categorical_RadioButton_Selected_Active" x="355" y="40"><path d="M7.5 1C3.9 1 1 3.9 1 7.5S3.9 14 7.5 14 14 11.1 14 7.5 11.1 1 7.5 1z" fill="#FFF"/><path d="M7.5 2c3 0 5.5 2.5 5.5 5.5S10.5 13 7.5 13 2 10.5 2 7.5 4.5 2 7.5 2m0-1C3.9 1 1 3.9 1 7.5S3.9 14 7.5 14 14 11.1 14 7.5 11.1 1 7.5 1z" fill="#333"/><circle cx="7.5" cy="7.5" r="2.5" fill="#333"/></svg><svg viewBox="0 0 15 15" width="15" height="15" id="shared_asset_images_filters_QF_Categorical_RadioButton_Unselected" x="335" y="40"><path d="M7.5 1C3.9 1 1 3.9 1 7.5S3.9 14 7.5 14 14 11.1 14 7.5 11.1 1 7.5 1z" fill="#FFF"/><path d="M7.5 2c3 0 5.5 2.5 5.5 5.5S10.5 13 7.5 13 2 10.5 2 7.5 4.5 2 7.5 2m0-1C3.9 1 1 3.9 1 7.5S3.9 14 7.5 14 14 11.1 14 7.5 11.1 1 7.5 1z" fill="#cbcbca"/><path d="M7.5 2c3 0 5.5 2.5 5.5 5.5S10.5 13 7.5 13 2 10.5 2 7.5 4.5 2 7.5 2m0-1C3.9 1 1 3.9 1 7.5S3.9 14 7.5 14 14 11.1 14 7.5 11.1 1 7.5 1z" fill="#cbcbca"/></svg><svg viewBox="0 0 15 15" width="15" height="15" id="shared_asset_images_filters_QF_Categorical_RadioButton_Unselected_Active" x="315" y="40"><path d="M7.5 1C3.9 1 1 3.9 1 7.5S3.9 14 7.5 14 14 11.1 14 7.5 11.1 1 7.5 1z" fill="#FFF"/><path d="M7.5 2c3 0 5.5 2.5 5.5 5.5S10.5 13 7.5 13 2 10.5 2 7.5 4.5 2 7.5 2m0-1C3.9 1 1 3.9 1 7.5S3.9 14 7.5 14 14 11.1 14 7.5 11.1 1 7.5 1z" fill="#333"/></svg><svg width="16" height="16" viewBox="0 0 16 16" id="shared_asset_images_tooltip_Tooltip_Action_Down" x="240"><path fill-rule="evenodd" clip-rule="evenodd" fill="#666" d="M10 7H8V5H7v2H5v1h2v2h1V8h2z"/><path d="M12 2H3c-.5 0-1 .5-1 1v9c0 .5.5 1 1 1h9c.5 0 1-.5 1-1V3c0-.5-.5-1-1-1zm0 10H3V3h9v9z" fill-rule="evenodd" clip-rule="evenodd" fill="#666"/></svg><svg width="16" height="16" viewBox="0 0 16 16" id="shared_asset_images_tooltip_Tooltip_Action_Down_Active" x="260"><path fill-rule="evenodd" clip-rule="evenodd" fill="#333" d="M10 7H8V5H7v2H5v1h2v2h1V8h2z"/><path d="M12 2H3c-.5 0-1 .5-1 1v9c0 .5.5 1 1 1h9c.5 0 1-.5 1-1V3c0-.5-.5-1-1-1zm0 10H3V3h9v9z" fill-rule="evenodd" clip-rule="evenodd" fill="#333"/></svg><svg width="16" height="16" viewBox="0 0 16 16" id="shared_asset_images_tooltip_Tooltip_Action_Down_Disabled" x="280"><path fill-rule="evenodd" clip-rule="evenodd" fill="#CCC" d="M10 7H8V5H7v2H5v1h2v2h1V8h2z"/><path d="M12 2H3c-.5 0-1 .5-1 1v9c0 .5.5 1 1 1h9c.5 0 1-.5 1-1V3c0-.5-.5-1-1-1zm0 10H3V3h9v9z" fill-rule="evenodd" clip-rule="evenodd" fill="#CCC"/></svg><svg width="16" height="16" viewBox="0 0 16 16" id="shared_asset_images_tooltip_Tooltip_Action_Up" x="300"><path d="M12 2H3c-.5 0-1 .5-1 1v9c0 .5.5 1 1 1h9c.5 0 1-.5 1-1V3c0-.5-.5-1-1-1zm0 10H3V3h9v9z" fill-rule="evenodd" clip-rule="evenodd" fill="#666"/><path fill-rule="evenodd" clip-rule="evenodd" fill="#666" d="M5 7h5v1H5z"/></svg><svg width="16" height="16" viewBox="0 0 16 16" id="shared_asset_images_tooltip_Tooltip_Action_Up_Active" x="320"><path d="M12 2H3c-.5 0-1 .5-1 1v9c0 .5.5 1 1 1h9c.5 0 1-.5 1-1V3c0-.5-.5-1-1-1zm0 10H3V3h9v9z" fill-rule="evenodd" clip-rule="evenodd" fill="#333"/><path fill-rule="evenodd" clip-rule="evenodd" fill="#333" d="M5 7h5v1H5z"/></svg><svg width="16" height="16" viewBox="0 0 16 16" id="shared_asset_images_tooltip_Tooltip_Action_Up_Disabled" x="340"><path d="M12 2H3c-.5 0-1 .5-1 1v9c0 .5.5 1 1 1h9c.5 0 1-.5 1-1V3c0-.5-.5-1-1-1zm0 10H3V3h9v9z" fill-rule="evenodd" clip-rule="evenodd" fill="#CCC"/><path fill-rule="evenodd" clip-rule="evenodd" fill="#CCC" d="M5 7h5v1H5z"/></svg><svg width="16" height="16" viewBox="0 0 16 16" id="shared_asset_images_tooltip_Tooltip_Exclude" x="360"><path d="M8.7 8l4.1-4.1c.2-.2.2-.5 0-.7s-.5-.2-.7 0L8 7.3 3.9 3.1c-.2-.1-.6-.1-.8 0-.1.2-.1.6 0 .8L7.3 8l-4.1 4.1c-.2.2-.2.5 0 .7.2.2.5.2.7 0L8 8.7l4.1 4.1c.2.2.5.2.7 0s.2-.5 0-.7L8.7 8z" fill-rule="evenodd" clip-rule="evenodd" fill="#666"/></svg><svg width="16" height="16" viewBox="0 0 16 16" id="shared_asset_images_tooltip_Tooltip_Exclude_Active" x="380"><path d="M12.9 3.9l-9 9c-.2.2-.5.2-.7 0-.2-.2-.2-.5 0-.7l9-9c.2-.2.5-.2.7 0 .1.1.1.5 0 .7z" fill-rule="evenodd" clip-rule="evenodd" fill="#333"/><path d="M12.9 12.1l-9-9c-.2-.1-.6-.1-.8 0-.1.2-.1.6 0 .8l9 9c.2.2.5.2.7 0 .2-.2.2-.6.1-.8z" fill-rule="evenodd" clip-rule="evenodd" fill="#333"/></svg><svg width="16" height="16" viewBox="0 0 16 16" id="shared_asset_images_tooltip_Tooltip_Exclude_Disabled" x="400"><path d="M12.9 3.9l-9 9c-.2.2-.5.2-.7 0-.2-.2-.2-.5 0-.7l9-9c.2-.2.5-.2.7 0 .1.1.1.5 0 .7z" fill-rule="evenodd" clip-rule="evenodd" fill="#CCC"/><path d="M12.9 12.1l-9-9c-.2-.1-.6-.1-.8 0-.1.2-.1.6 0 .8l9 9c.2.2.5.2.7 0 .2-.2.2-.6.1-.8z" fill-rule="evenodd" clip-rule="evenodd" fill="#CCC"/></svg><svg width="16" height="16" viewBox="0 0 16 16" id="shared_asset_images_tooltip_Tooltip_Group" x="420"><path d="M7.6 6.6l-2.1 4.5c-.5.9-1.8 1.1-2.6.7-.7-.4-1.1-1.2-.7-2L5 4.4c.4-.8 1.3-1.3 2.3-1.3 1.4 0 2.6 1 2.6 2.4 0 .4-.1.8-.2 1.1l-1.9 3.8c-.1.2-.1.5.2.7.2.1.5 0 .7-.2L10.5 7c.2-.5.3-1 .3-1.5C10.9 3.6 9.2 2 7.2 2 5.9 2 4.6 2.8 4 3.9L1.3 9.4c-.7 1.3 0 2.8 1.3 3.4 1.2.6 3 .1 3.6-1.2L8.3 7c.4-.9.2-1.8-.6-2.2-.9-.3-1.8 0-2.2.8L3.9 8.8c-.1.2-.1.5.2.7.2.1.5 0 .6-.2L6.3 6c.2-.3.6-.5.9-.3.3.2.5.6.4.9z" fill-rule="evenodd" clip-rule="evenodd" fill="#666"/></svg><svg width="16" height="16" viewBox="0 0 16 16" id="shared_asset_images_tooltip_Tooltip_Group_Active" x="440"><path d="M7.6 6.6l-2.1 4.5c-.5.9-1.8 1.1-2.6.7-.7-.4-1.1-1.2-.7-2L5 4.4c.4-.8 1.3-1.3 2.3-1.3 1.4 0 2.6 1 2.6 2.4 0 .4-.1.8-.2 1.1l-1.9 3.8c-.1.2-.1.5.2.7.2.1.5 0 .7-.2L10.5 7c.2-.5.3-1 .3-1.5C10.9 3.6 9.2 2 7.2 2 5.9 2 4.6 2.8 4 3.9L1.3 9.4c-.7 1.3 0 2.8 1.3 3.4 1.2.6 3 .1 3.6-1.2L8.3 7c.4-.9.2-1.8-.6-2.2-.9-.3-1.8 0-2.2.8L3.9 8.8c-.1.2-.1.5.2.7.2.1.5 0 .6-.2L6.3 6c.2-.3.6-.5.9-.3.3.2.5.6.4.9z" fill-rule="evenodd" clip-rule="evenodd" fill="#333"/></svg><svg width="16" height="16" viewBox="0 0 16 16" id="shared_asset_images_tooltip_Tooltip_Group_Disabled" x="460"><path d="M7.6 6.6l-2.1 4.5c-.5.9-1.8 1.1-2.6.7-.7-.4-1.1-1.2-.7-2L5 4.4c.4-.8 1.3-1.3 2.3-1.3 1.4 0 2.6 1 2.6 2.4 0 .4-.1.8-.2 1.1l-1.9 3.8c-.1.2-.1.5.2.7.2.1.5 0 .7-.2L10.5 7c.2-.5.3-1 .3-1.5C10.9 3.6 9.2 2 7.2 2 5.9 2 4.6 2.8 4 3.9L1.3 9.4c-.7 1.3 0 2.8 1.3 3.4 1.2.6 3 .1 3.6-1.2L8.3 7c.4-.9.2-1.8-.6-2.2-.9-.3-1.8 0-2.2.8L3.9 8.8c-.1.2-.1.5.2.7.2.1.5 0 .6-.2L6.3 6c.2-.3.6-.5.9-.3.3.2.5.6.4.9z" fill-rule="evenodd" clip-rule="evenodd" fill="#CCC"/></svg><svg width="16" height="16" viewBox="0 0 16 16" id="shared_asset_images_tooltip_Tooltip_KeepOnly" x="480"><path d="M6.9 13.2c.3.2.8.1 1-.3l5-8.9c.2-.3.1-.8-.3-.9-.3-.2-.8-.1-.9.3L7 11.5 4 8.8c-.3-.3-.8-.2-1 0-.3.4-.3.8 0 1L6.7 13l.2.2z" fill-rule="evenodd" clip-rule="evenodd" fill="#666"/></svg><svg width="16" height="16" viewBox="0 0 16 16" id="shared_asset_images_tooltip_Tooltip_KeepOnly_Active" x="500"><path d="M6.9 13.2c.3.2.8.1 1-.3l5-8.9c.2-.3.1-.8-.3-.9-.3-.2-.8-.1-.9.3L7 11.5 4 8.8c-.3-.3-.8-.2-1 0-.3.4-.3.8 0 1L6.7 13l.2.2z" fill-rule="evenodd" clip-rule="evenodd" fill="#333"/></svg><svg width="16" height="16" viewBox="0 0 16 16" id="shared_asset_images_tooltip_Tooltip_KeepOnly_Disabled" x="520"><path d="M6.9 13.2c.3.2.8.1 1-.3l5-8.9c.2-.3.1-.8-.3-.9-.3-.2-.8-.1-.9.3L7 11.5 4 8.8c-.3-.3-.8-.2-1 0-.3.4-.3.8 0 1L6.7 13l.2.2z" fill-rule="evenodd" clip-rule="evenodd" fill="#CCC"/></svg><svg width="16" height="16" viewBox="0 0 16 16" id="shared_asset_images_tooltip_Tooltip_ShowData"><g fill-rule="evenodd" clip-rule="evenodd" fill="#666"><path d="M2 3h2v1H2zM5 3h4v1H5zM10 3h4v1h-4zM2 5h2v1H2zM5 5h4v1H5zM10 5h4v1h-4zM2 7h2v1H2zM5 7h4v1H5zM10 7h4v1h-4zM2 9h2v1H2zM5 9h4v1H5zM10 9h4v1h-4zM2 11h2v1H2zM5 11h4v1H5zM10 11h4v1h-4z"/></g></svg><svg width="16" height="16" viewBox="0 0 16 16" id="shared_asset_images_tooltip_Tooltip_ShowData_Active" x="20"><g fill-rule="evenodd" clip-rule="evenodd" fill="#333"><path d="M2 3h2v1H2zM5 3h4v1H5zM10 3h4v1h-4zM2 5h2v1H2zM5 5h4v1H5zM10 5h4v1h-4zM2 7h2v1H2zM5 7h4v1H5zM10 7h4v1h-4zM2 9h2v1H2zM5 9h4v1H5zM10 9h4v1h-4zM2 11h2v1H2zM5 11h4v1H5zM10 11h4v1h-4z"/></g></svg><svg width="16" height="16" viewBox="0 0 16 16" id="shared_asset_images_tooltip_Tooltip_ShowData_Disabled" x="40"><g fill-rule="evenodd" clip-rule="evenodd" fill="#CCC"><path d="M2 3h2v1H2zM5 3h4v1H5zM10 3h4v1h-4zM2 5h2v1H2zM5 5h4v1H5zM10 5h4v1h-4zM2 7h2v1H2zM5 7h4v1H5zM10 7h4v1h-4zM2 9h2v1H2zM5 9h4v1H5zM10 9h4v1h-4zM2 11h2v1H2zM5 11h4v1H5zM10 11h4v1h-4z"/></g></svg><svg width="16" height="16" viewBox="0 0 16 16" id="shared_asset_images_tooltip_Tooltip_Sort_Ascending" x="60"><g fill-rule="evenodd" clip-rule="evenodd" fill="#666"><path d="M2 3h3v2H2zM2 7h6v2H2zM2 11h10v2H2z"/></g><path d="M13.8 6H12V3h-1v3H9.2c-.1 0-.2.1-.1.2l2.3 3c.1.1.2.1.3 0l2.3-3c0-.1-.1-.2-.2-.2z" fill="#666"/></svg><svg width="16" height="16" viewBox="0 0 16 16" id="shared_asset_images_tooltip_Tooltip_Sort_Ascending_Active" x="80"><g fill-rule="evenodd" clip-rule="evenodd" fill="#333"><path d="M2 3h3v2H2zM2 7h6v2H2zM2 11h10v2H2z"/></g><path d="M13.8 6H12V3h-1v3H9.2c-.1 0-.2.1-.1.2l2.3 3c.1.1.2.1.3 0l2.3-3c0-.1-.1-.2-.2-.2z" fill="#333"/></svg><svg width="16" height="16" viewBox="0 0 16 16" id="shared_asset_images_tooltip_Tooltip_Sort_Ascending_Disabled" x="100"><g fill-rule="evenodd" clip-rule="evenodd" fill="#CCC"><path d="M2 3h3v2H2zM2 7h6v2H2zM2 11h10v2H2z"/></g><path d="M13.8 6H12V3h-1v3H9.2c-.1 0-.2.1-.1.2l2.3 3c.1.1.2.1.3 0l2.3-3c0-.1-.1-.2-.2-.2z" fill="#CCC"/></svg><svg width="16" height="16" viewBox="0 0 16 16" id="shared_asset_images_tooltip_Tooltip_Sort_Descending" x="220"><path d="M13.8 10H12V7h-1v3H9.2c-.2 0-.2.1-.2.2l2.3 3c.1.1.2.1.3 0l2.3-3c.1-.1 0-.2-.1-.2z" fill="#666"/><g fill-rule="evenodd" clip-rule="evenodd" fill="#666"><path d="M2 11h3v2H2zM2 7h6v2H2zM2 3h10v2H2z"/></g></svg><svg width="16" height="16" viewBox="0 0 16 16" id="shared_asset_images_tooltip_Tooltip_Sort_Descending_Active" x="120"><path d="M13.8 10H12V7h-1v3H9.2c-.2 0-.2.1-.2.2l2.3 3c.1.1.2.1.3 0l2.3-3c.1-.1 0-.2-.1-.2z" fill="#333"/><g fill-rule="evenodd" clip-rule="evenodd" fill="#333"><path d="M2 11h3v2H2zM2 7h6v2H2zM2 3h10v2H2z"/></g></svg><svg width="16" height="16" viewBox="0 0 16 16" id="shared_asset_images_tooltip_Tooltip_Sort_Descending_Disabled" x="140"><path d="M13.8 10H12V7h-1v3H9.2c-.2 0-.2.1-.2.2l2.3 3c.1.1.2.1.3 0l2.3-3c.1-.1 0-.2-.1-.2z" fill="#CCC"/><g fill-rule="evenodd" clip-rule="evenodd" fill="#CCC"><path d="M2 11h3v2H2zM2 7h6v2H2zM2 3h10v2H2z"/></g></svg><svg width="16" height="16" viewBox="0 0 16 16" id="shared_asset_images_tooltip_Tooltip_Split" x="160"><path d="M7.6 6.6l-2.1 4.5c-.5.9-1.8 1.1-2.6.7-.7-.4-1.1-1.2-.7-2L5 4.4c.4-.8 1.3-1.3 2.3-1.3 1.4 0 2.6 1 2.6 2.4 0 .4-.1.8-.2 1.1l-1.9 3.8c-.1.2-.1.5.2.7.2.1.5 0 .7-.2L10.5 7c.2-.5.3-1 .3-1.5C10.9 3.6 9.2 2 7.2 2 5.9 2 4.6 2.8 4 3.9L1.3 9.4c-.7 1.3 0 2.8 1.3 3.4 1.2.6 3 .1 3.6-1.2L8.3 7c.4-.9.2-1.8-.6-2.2-.9-.3-1.8 0-2.2.8L3.9 8.8c-.1.2-.1.5.2.7.2.1.5 0 .6-.2L6.3 6c.2-.3.6-.5.9-.3.3.2.5.6.4.9zM14.2 10.5l1.6-1.6c.2-.2.2-.5 0-.7-.2-.2-.5-.2-.7 0l-1.6 1.6-1.6-1.6c-.2-.2-.5-.2-.7 0-.2.2-.2.5 0 .7l1.6 1.6-1.6 1.6c-.2.2-.2.5 0 .7.2.2.5.2.7 0l1.6-1.6 1.6 1.6c.2.2.5.2.7 0 .2-.2.2-.5 0-.7l-1.6-1.6z" fill-rule="evenodd" clip-rule="evenodd" fill="#666"/></svg><svg width="16" height="16" viewBox="0 0 16 16" id="shared_asset_images_tooltip_Tooltip_Split_Active" x="180"><path d="M7.6 6.6l-2.1 4.5c-.5.9-1.8 1.1-2.6.7-.7-.4-1.1-1.2-.7-2L5 4.4c.4-.8 1.3-1.3 2.3-1.3 1.4 0 2.6 1 2.6 2.4 0 .4-.1.8-.2 1.1l-1.9 3.8c-.1.2-.1.5.2.7.2.1.5 0 .7-.2L10.5 7c.2-.5.3-1 .3-1.5C10.9 3.6 9.2 2 7.2 2 5.9 2 4.6 2.8 4 3.9L1.3 9.4c-.7 1.3 0 2.8 1.3 3.4 1.2.6 3 .1 3.6-1.2L8.3 7c.4-.9.2-1.8-.6-2.2-.9-.3-1.8 0-2.2.8L3.9 8.8c-.1.2-.1.5.2.7.2.1.5 0 .6-.2L6.3 6c.2-.3.6-.5.9-.3.3.2.5.6.4.9zM14.2 10.5l1.6-1.6c.2-.2.2-.5 0-.7-.2-.2-.5-.2-.7 0l-1.6 1.6-1.6-1.6c-.2-.2-.5-.2-.7 0-.2.2-.2.5 0 .7l1.6 1.6-1.6 1.6c-.2.2-.2.5 0 .7.2.2.5.2.7 0l1.6-1.6 1.6 1.6c.2.2.5.2.7 0 .2-.2.2-.5 0-.7l-1.6-1.6z" fill-rule="evenodd" clip-rule="evenodd" fill="#333"/></svg><svg width="16" height="16" viewBox="0 0 16 16" id="shared_asset_images_tooltip_Tooltip_Split_Disabled" x="200"><path d="M7.6 6.6l-2.1 4.5c-.5.9-1.8 1.1-2.6.7-.7-.4-1.1-1.2-.7-2L5 4.4c.4-.8 1.3-1.3 2.3-1.3 1.4 0 2.6 1 2.6 2.4 0 .4-.1.8-.2 1.1l-1.9 3.8c-.1.2-.1.5.2.7.2.1.5 0 .7-.2L10.5 7c.2-.5.3-1 .3-1.5C10.9 3.6 9.2 2 7.2 2 5.9 2 4.6 2.8 4 3.9L1.3 9.4c-.7 1.3 0 2.8 1.3 3.4 1.2.6 3 .1 3.6-1.2L8.3 7c.4-.9.2-1.8-.6-2.2-.9-.3-1.8 0-2.2.8L3.9 8.8c-.1.2-.1.5.2.7.2.1.5 0 .6-.2L6.3 6c.2-.3.6-.5.9-.3.3.2.5.6.4.9zM14.2 10.5l1.6-1.6c.2-.2.2-.5 0-.7-.2-.2-.5-.2-.7 0l-1.6 1.6-1.6-1.6c-.2-.2-.5-.2-.7 0-.2.2-.2.5 0 .7l1.6 1.6-1.6 1.6c-.2.2-.2.5 0 .7.2.2.5.2.7 0l1.6-1.6 1.6 1.6c.2.2.5.2.7 0 .2-.2.2-.5 0-.7l-1.6-1.6z" fill-rule="evenodd" clip-rule="evenodd" fill="#CCC"/></svg><svg viewBox="0 0 18 18" width="18" height="18" id="shared_asset_images_viz-toolbar_Apple_White" x="255" y="40"><path fill="#FFF" d="M8.1 4.1c1 0 2-.6 2.5-1.3.6-.8 1.1-1.8.9-2.8-.9.1-2 .6-2.6 1.4-.6.7-1 1.7-.8 2.7zm7 1.6C14.2 4.6 13 4 11.8 4c-1.5 0-2.2.7-3.2.7-1.1 0-1.9-.7-3.3-.7-1.3 0-2.7.8-3.5 2.1-1.2 1.9-1 5.5 1 8.5.7 1.2 1.6 2.4 2.9 2.4 1.1 0 1.4-.7 2.9-.7.7 0 1.2.2 1.6.4.4.2.7.4 1.3.4 1.3 0 2.3-1.4 3-2.5.5-.8.7-1.2 1.1-2.1-2.9-1.1-3.4-5.2-.5-6.8z"/></svg><svg width="20" height="18" viewBox="0 0 20 18" id="shared_asset_images_viz-toolbar_Clear" x="475" y="20"><path d="M3.156 1.922l11.938 11.943c.195.195.543.165.738-.03.194-.194.224-.542.03-.737L3.922 1.155C3.73.96 3.38.99 3.187 1.185c-.195.194-.225.542-.03.737z" fill="#333"/><path d="M15.862 1.922L3.922 13.865c-.193.195-.542.165-.736-.03-.195-.194-.225-.542-.03-.737L15.094 1.155c.195-.195.543-.165.738.03.194.194.224.542.03.737z" fill="#333"/></svg><svg viewBox="0 0 22 18" width="22" height="18" id="shared_asset_images_viz-toolbar_CustomView" x="150" y="20"><g fill="#333"><path d="M17 1H4c-.5 0-1 .4-1 1v13c0 .5.5 1 1 1h13c.5 0 1-.5 1-1V2c0-.6-.5-1-1-1zm0 14H4V2h13v13z"/><path d="M7 8h1v5H7zM10 4h1v9h-1zM13 6h1v7h-1z"/></g></svg><svg viewBox="0 0 22 18" width="22" height="18" id="shared_asset_images_viz-toolbar_CustomViewToggled" x="175" y="20"><path d="M17 2H4c-.5 0-1 .4-1 1v13c0 .5.5 1 1 1h13c.5 0 1-.5 1-1V3c0-.6-.5-1-1-1z" fill="#333"/><path fill="#FFF" d="M7 9h1v5H7zM10 5h1v9h-1zM13 7h1v7h-1z"/></svg><svg width="20" height="18" viewBox="0 0 20 18" id="shared_asset_images_viz-toolbar_Delete" x="450" y="20"><path d="M12 6h-1v7h1V6zm-2 0H9v7h1V6zm4.02-4H12V1a1 1 0 0 0-1-1H8a1 1 0 0 0-1 1v1H3v1h1v13a1 1 0 0 0 1 1h9a1 1 0 0 0 1-1V3h1V2h-1.98zM8 1h3.02v1H8V1zm6 15H5V3h9v13zM8 6H7v7h1V6z" fill-rule="evenodd" clip-rule="evenodd" fill="#333"/></svg><svg viewBox="0 0 22 18" width="22" height="18" id="shared_asset_images_viz-toolbar_Download" x="225" y="20"><g fill="#333"><path d="M13.6 12l-3 4.4L7.5 12zM17 1H4c-.6 0-1 .5-1 1v7c0 .5.4 1 1 1h3V9H4V2h13v7h-3v1h3c.6 0 1-.5 1-1V2c0-.5-.4-1-1-1z"/><path d="M10 5h1v9h-1z"/></g></svg><svg viewBox="0 0 22 18" width="22" height="18" id="shared_asset_images_viz-toolbar_Download_White" y="20"><g fill="#FFF"><path d="M13.6 12l-3 4.4L7.5 12zM17 1H4c-.6 0-1 .5-1 1v7c0 .5.4 1 1 1h3V9H4V2h13v7h-3v1h3c.6 0 1-.5 1-1V2c0-.5-.4-1-1-1z"/><path d="M10 5h1v9h-1z"/></g></svg><svg viewBox="0 0 22 18" width="22" height="18" id="shared_asset_images_viz-toolbar_Edit" x="275" y="20"><path fill="#333" d="M15.2 5.2l-7.5 7.6-1-1 7.6-7.5-.6-.7-8.3 8.3 2.2 2.2 8.3-8.2zM6.4 15.3l-2.9.7.8-2.9zM14.7 2.6l.6.6 1-1 .9.9-1 1 .6.6L18 3.5c.3-.3.3-.7 0-1l-1.2-1.2c-.3-.3-.7-.3-1 0l-1.1 1.3z"/></svg><svg width="25" height="18" viewBox="0 0 25 18" id="shared_asset_images_viz-toolbar_EmailLink" x="500" y="20"><path d="M12 13H1V1h19v10h1V1a1 1 0 0 0-1-1H1a1 1 0 0 0-1 1v12a1 1 0 0 0 1 1h11v-1zM22.5 16a1.5 1.5 0 0 0 0-3l-3.223-.01c.347-.595.985-.99 1.723-.99h2a2 2 0 0 1 2 2v1a2 2 0 0 1-2 2h-2a1.99 1.99 0 0 1-1.723-1H22.5z" fill-rule="evenodd" clip-rule="evenodd" fill="#333"/><path d="M15.5 16a1.5 1.5 0 0 1 0-3l3.223-.01A1.983 1.983 0 0 0 17 12h-2a2 2 0 0 0-2 2v1a2 2 0 0 0 2 2h2a1.99 1.99 0 0 0 1.723-1H15.5z" fill-rule="evenodd" clip-rule="evenodd" fill="#333"/><path d="M16.5 14h5a.5.5 0 0 1 0 1h-5a.5.5 0 0 1 0-1z" fill-rule="evenodd" clip-rule="evenodd" fill="#333"/><path d="M19 2.555a.555.555 0 0 0-.892-.44l-7.6 5.268-7.663-5.29A.548.548 0 0 0 2.555 2 .555.555 0 0 0 2 2.555c0 .198.112.368.27.466L10.5 8.7l8.25-5.693c.148-.1.25-.26.25-.452z" fill="#333"/></svg><svg id="shared_asset_images_viz-toolbar_EmailLink_White" width="25" height="15" viewBox="0 0 25 15" x="30" y="70"><style>.bxst0{display:none}.bxst1{display:inline;fill:#dd1b1b}.bxst2{fill:#FFF}</style><g class="bxst0"><path class="bxst1" d="M11.7 10.5h-8V1.7h13.8v7.4h.7V1.7c0-.4-.3-.7-.7-.7H3.7c-.4 0-.7.3-.7.7v8.8c0 .4.3.7.7.7h8v-.7zM19.4 12.6c.6 0 1.1-.5 1.1-1.1s-.5-1.1-1.1-1.1h-2.3c.2-.4.7-.7 1.2-.7h1.5c.8 0 1.5.7 1.5 1.5v.7c0 .8-.7 1.5-1.5 1.5h-1.5c-.5 0-1-.3-1.2-.7 0-.1 2.1-.1 2.3-.1z"/><path class="bxst1" d="M14.2 12.6c-.6 0-1.1-.5-1.1-1.1s.5-1.1 1.1-1.1h2.3c-.2-.4-.7-.7-1.2-.7h-1.5c-.8 0-1.5.7-1.5 1.5v.7c0 .8.7 1.5 1.5 1.5h1.6c.5 0 1-.3 1.2-.7 0-.1-2.2-.1-2.4-.1z"/><path class="bxst1" d="M14.9 11.2h3.6c.2 0 .3.2.3.3 0 .2-.2.3-.3.3h-3.6c-.2 0-.3-.2-.3-.3 0-.1.2-.3.3-.3zM16.8 2.9c0-.3-.2-.4-.4-.4-.1 0-.2 0-.2.1l-5.6 3.7-5.5-3.8c0-.1-.1-.1-.2-.1-.3 0-.5.2-.5.4s0 .2.1.3l6 4.1 6.2-4c.1-.1.1-.2.1-.3z"/></g><path class="bxst2" d="M11 11H2V1h17v8h1V1c0-.5-.5-1-1-1H2c-.5 0-1 .5-1 1v10c0 .5.5 1 1 1h9v-1z"/><path class="bxst2" d="M18 2.5c0-.3-.2-.5-.5-.5-.1 0-.2 0-.3.1l-6.7 4.6-6.8-4.6c0-.1-.1-.1-.2-.1-.3 0-.5.2-.5.5 0 .2.1.3.2.4l7.3 5 7.3-5c.1-.1.2-.2.2-.4zM21.5 14c.8 0 1.5-.7 1.5-1.5s-.7-1.5-1.5-1.5h-3.2c.3-.6 1-1 1.7-1h2c1.1 0 2 .9 2 2v1c0 1.1-.9 2-2 2h-2c-.7 0-1.4-.4-1.7-1h3.2zM14.5 14c-.8 0-1.5-.7-1.5-1.5s.7-1.5 1.5-1.5h3.2c-.3-.6-1-1-1.7-1h-2c-1.1 0-2 .9-2 2v1c0 1.1.9 2 2 2h2c.7 0 1.4-.4 1.7-1h-3.2z"/><path class="bxst2" d="M15.5 12h5c.3 0 .5.2.5.5s-.2.5-.5.5h-5c-.3 0-.5-.2-.5-.5s.2-.5.5-.5z"/></svg><svg id="shared_asset_images_viz-toolbar_Facebook_White" width="18" height="18" viewBox="0 0 18 18" x="235" y="40"><style>.byst0{fill:#FFF}</style><path class="byst0" d="M15.4 2H2.8c-.4 0-.8.3-.8.8v12.4c0 .5.4.8.8.8h6.7v-5.3H7.7V8.5h1.8V6.8C9.5 5 10.6 4 12.3 4h1.6v2.1h-1.1c-.9 0-1.1.4-1.1 1v1.4h2.1l-.3 2.2h-1.9V16h3.6c.4 0 .8-.3.8-.8V2.8c.1-.5-.2-.8-.6-.8z"/></svg><svg width="20" height="18" viewBox="0 0 20 18" id="shared_asset_images_viz-toolbar_MakeView_Private" x="375" y="20"><path d="M9.5 3C4.898 3 1 8.48 1 8.48S4.898 14 9.5 14 18 8.526 18 8.526 14.102 3 9.5 3zm0 10.004c-3.626 0-7.17-4.525-7.17-4.525S5.88 4 9.5 3.995c3.564-.004 7.17 4.53 7.17 4.53s-3.482 4.478-7.17 4.478z" fill-rule="evenodd" clip-rule="evenodd" fill="#333"/><path d="M9.5 5a3.5 3.5 0 1 0 0 7 3.5 3.5 0 0 0 0-7zm0 6a2.5 2.5 0 1 1 0-5 2.5 2.5 0 0 1 0 5z" fill-rule="evenodd" clip-rule="evenodd" fill="#333"/><path d="M16.147 15.854l-14-14a.502.502 0 0 1 0-.708.502.502 0 0 1 .706 0l14 14a.5.5 0 1 1-.707.707z" fill-rule="evenodd" clip-rule="evenodd" fill="#333"/></svg><svg width="20" height="18" viewBox="0 0 20 18" id="shared_asset_images_viz-toolbar_MakeView_Public" x="400" y="20"><path d="M9.5 3C4.898 3 1 8.48 1 8.48S4.898 14 9.5 14 18 8.526 18 8.526 14.102 3 9.5 3zm0 10.004c-3.626 0-7.17-4.525-7.17-4.525S5.88 4 9.5 3.995c3.564-.004 7.17 4.53 7.17 4.53s-3.482 4.478-7.17 4.478z" fill-rule="evenodd" clip-rule="evenodd" fill="#333"/><path d="M9.5 5a3.5 3.5 0 1 0 0 7 3.5 3.5 0 0 0 0-7zm0 6a2.5 2.5 0 1 1 0-5 2.5 2.5 0 0 1 0 5z" fill-rule="evenodd" clip-rule="evenodd" fill="#333"/></svg><svg width="20" height="18" viewBox="0 0 20 18" id="shared_asset_images_viz-toolbar_Manage" x="425" y="20"><path d="M9.97 4.99a4 4 0 1 0 0 8 4 4 0 0 0 0-8zm0 7a3 3 0 1 1 0-6 3 3 0 0 1 0 6z" fill-rule="evenodd" clip-rule="evenodd" fill="#333"/><path d="M16.978 7.005l-1.13-.127a6.216 6.216 0 0 0-.213-.518l.714-.884a1 1 0 0 0 0-1.415l-1.415-1.413a1 1 0 0 0-1.414 0l-.876.7a6.192 6.192 0 0 0-.53-.223l-.12-1.113a1 1 0 0 0-1-1h-2a1 1 0 0 0-1 1l-.123 1.1c-.186.065-.368.14-.546.224l-.86-.694a1 1 0 0 0-1.413 0L3.637 4.054a1 1 0 0 0 0 1.415l.686.858c-.084.18-.16.363-.228.55L3 6.996a1 1 0 0 0-1 1v2a1 1 0 0 0 1 1l1.1.124c.07.184.144.364.227.54l-.698.864a1 1 0 0 0 0 1.414l1.413 1.415a1 1 0 0 0 1.415 0l.88-.702c.17.08.347.153.527.217l.12 1.122a1 1 0 0 0 1 1h2a1 1 0 0 0 1-1l.127-1.135c.174-.064.345-.135.512-.213l.89.718a1 1 0 0 0 1.414 0l1.414-1.414a1 1 0 0 0 0-1.415l-.715-.895c.078-.165.148-.335.21-.51l1.14-.12c.554 0 1.023-.453 1.023-1.005V8c0-.552-.47-.995-1.022-.995zM17 10l-1.935.208a5.206 5.206 0 0 1-.656 1.56l.667.816c.004-.005.008-.008.01-.013l.548.67-.012.01.002.004-1.414 1.414-1.493-1.223a5.2 5.2 0 0 1-1.564.65l-.105 1.045.02-.003-.084.852h-.02L11 16H9l-.228-1.91a5.2 5.2 0 0 1-1.535-.638l-1.485 1.216-1.415-1.414.01-.012-.01-.01.528-.647.01.012.666-.814a5.206 5.206 0 0 1-.663-1.577l-1.896-.19v-2L3 8.014v-.02l.82-.08c0 .005 0 .012-.003.02l1.043-.106a5.2 5.2 0 0 1 .656-1.587L4.31 4.77l1.415-1.414.014.012.018-.02.636.522c-.007.005-.012.012-.02.017l.816.667a5.205 5.205 0 0 1 1.583-.663l.19-1.892h2.06l.175 1.9c.564.136 1.092.36 1.568.662l.814-.667-.005-.005.653-.534.004.004.005-.004 1.414 1.414-1.216 1.488c.295.48.52 1.005.648 1.57l1.042.105v-.01l.854.085v.01L17 8v2z" fill-rule="evenodd" clip-rule="evenodd" fill="#333"/></svg><svg viewBox="0 0 132 26" width="132" height="26" id="shared_asset_images_viz-toolbar_Online_Tableau_Logo" y="40"><g fill="#231F20"><path d="M23.2 11.9h-2.4V9.4h-.9v2.5h-2.4v1h2.4v2.5h.9v-2.5h2.4zM18.4 16.1h-2.1v-2.3h-.8v2.3h-2.1v.7h2.1v2.3h.8v-2.3h2.1zM27.3 7.9h-2.1V5.6h-.8v2.3h-2.1v.7h2.1v2.3h.8V8.6h2.1zM22.1 18.7h-1.4v-1.6H20v1.6h-1.4v.6H20v1.6h.7v-1.6h1.4zM18.4 7.9h-2.1V5.6h-.8v2.3h-2.1v.7h2.1v2.3h.8V8.6h2.1zM28.9 12.1h-1.4v-1.6h-.7v1.6h-1.4v.6h1.4v1.6h.7v-1.6h1.4z"/><path fill-rule="evenodd" clip-rule="evenodd" d="M27.3 16.1h-2.1v-2.3h-.8v2.3h-2.1v.7h2.1v2.3h.8v-2.3h2.1z"/><path d="M22 5.5h-1.4V4h-.5v1.5h-1.4V6h1.4v1.6h.5V6H22zM15.1 12.2h-1.4v-1.6h-.5v1.6h-1.4v.5l1.4-.1v1.6h.5v-1.6h1.4z"/><path fill-rule="evenodd" clip-rule="evenodd" d="M67 10.4c.7-.3 1.4-.4 1.8-.4 2.1 0 3.5 1.5 3.5 3.8 0 2.4-1.5 3.8-4.1 3.8-.9 0-1.8-.2-2.7-.5V6.6H67v3.8zm1.4 5.8c1.5 0 2.3-.8 2.3-2.3 0-1.5-.8-2.3-2.2-2.3-.6 0-1.1.2-1.5.4v4c.5.1.9.2 1.4.2zM78.8 5.1h1.5v13.8h-1.5zM88.9 13h3.5c0-.9-.5-1.4-1.5-1.5-.8 0-1.7.5-2 1.5zm1.7 4.6c-2.4-.2-3.5-1.9-3.5-3.9.1-2.1 1.5-3.7 3.6-3.7 2.2 0 3.5 1.6 3.4 4.1h-5.3c.1 1.3.9 2 2 2.1.9.1 2.2-.1 2.9-.6v1.5c-.9.5-1.9.7-3.1.5zM117 16.4c1 0 1.6-.5 1.6-1.6v-4.6h1.6V15c0 1.6-1.2 2.6-3.2 2.6s-3.2-1-3.2-2.6v-4.8h1.6v4.6c0 1.1.7 1.6 1.6 1.6zM55.2 17.6c-2.6 0-4.1-1.4-4.1-3.8 0-2.3 1.4-3.8 3.5-3.8.7 0 1.3.2 1.8.5V10H58v7.1c-.8.3-1.9.5-2.8.5zm-.2-1.4c.4 0 .8 0 1.3-.2v-4c-.5-.3-1-.5-1.5-.5-1.3 0-2.2.9-2.2 2.3.1 1.5.9 2.4 2.4 2.4zM104.5 17.6c-2.6 0-4.1-1.4-4.1-3.8 0-2.3 1.4-3.8 3.5-3.8.7 0 1.3.2 1.8.5V10h1.6v7.1c-.7.3-1.8.5-2.8.5zm-.2-1.4c.3 0 .8 0 1.3-.2v-4c-.5-.3-1-.5-1.5-.5-1.3 0-2.2.9-2.2 2.3.1 1.5 1 2.4 2.4 2.4z"/><path d="M39.4 7.1H41v4.4h4.2v1.4H41v4.8h-1.6v-4.8h-4.1v-1.4h4.1z"/></g></svg><svg viewBox="0 0 26 26" width="26" height="26" id="shared_asset_images_viz-toolbar_Online_Tableau_Sparkle" y="70"><g fill="#231F20"><path d="M15.8 12.5h-2.3V9.9h-1v2.6h-2.3v.9h2.3V16h1v-2.6h2.3zM11.1 16.7H9v-2.3h-.8v2.3H6.1v.7h2.1v2.3H9v-2.3h2.1zM20 8.5h-2.2V6.2H17v2.3h-2.1v.7H17v2.3h.8V9.2H20zM14.8 19.2h-1.4v-1.6h-.7v1.6h-1.5v.7h1.5v1.6h.7v-1.6h1.4zM11.1 8.5H8.9V6.2h-.7v2.3H6.1v.7h2.1v2.3h.7V9.2h2.2zM21.6 12.7h-1.5v-1.6h-.6v1.6H18v.6h1.5v1.6h.6v-1.6h1.5z"/><path fill-rule="evenodd" clip-rule="evenodd" d="M20 16.7h-2.2v-2.3H17v2.3h-2.1v.7H17v2.3h.8v-2.3H20z"/><path d="M14.7 6.1h-1.4V4.5h-.5v1.6h-1.5v.5h1.5v1.6h.5V6.6h1.4zM7.8 12.7H6.3v-1.5h-.5v1.5H4.4v.5h1.4v1.6h.5v-1.6h1.5z"/></g></svg><svg viewBox="0 0 22 18" width="22" height="18" id="shared_asset_images_viz-toolbar_Pause" x="125" y="20"><g fill="#333"><path d="M15 4h1v5h-1zM5 4v9.3l1 .2V4z"/></g><path d="M10 15c-2.4-.1-4-1.1-4-1.8H5c0 1.4 2.2 2.6 5 2.7V15z" fill="#333"/><path fill="#333" d="M6 14l-1-.8V4h1z"/><path d="M10.5 1C7.5 1 5 2.3 5 4s2.5 3 5.5 3S16 5.7 16 4s-2.5-3-5.5-3zm0 5C8 6 6 5.1 6 4s2-2 4.5-2 4.5.9 4.5 2-2 2-4.5 2zM12 11h2v7h-2zM15 11h2v7h-2z" fill="#333"/></svg><svg viewBox="0 0 22 18" width="22" height="18" id="shared_asset_images_viz-toolbar_Performance" x="100" y="20"><path fill="#333" d="M9 0v1h1v1.5h1V1h1V0z"/><path d="M10.5 2C6.4 2 3 5.4 3 9.5S6.4 17 10.5 17 18 13.6 18 9.5 14.6 2 10.5 2zm0 14C6.9 16 4 13.1 4 9.5S6.9 3 10.5 3 17 5.9 17 9.5 14.1 16 10.5 16z" fill="#333"/><path fill="#333" d="M10 5h1v5h-1z"/><path fill="#333" d="M10 9h4v1h-4z"/></svg><svg viewBox="0 0 22 18" width="22" height="18" id="shared_asset_images_viz-toolbar_Play" x="300" y="20"><path fill="#333" d="M15 4h1v5h-1zM6 14l-1-.8V4h1z"/><path d="M10.5 1C7.5 1 5 2.3 5 4s2.5 3 5.5 3S16 5.7 16 4s-2.5-3-5.5-3zm0 5C8 6 6 5.1 6 4s2-2 4.5-2 4.5.9 4.5 2-2 2-4.5 2zM18 13.5L13 17v-7l5 3.5zM6 13.2H5c.2 1.6 2.6 2.8 5.5 2.8h.5v-1h-.5c-2.4 0-4.3-.8-4.5-1.8z" fill="#333"/></svg><svg viewBox="0 0 22 18" width="22" height="18" id="shared_asset_images_viz-toolbar_Redo" x="200" y="20"><g fill="#333"><path d="M16.2 8.8l-5-5c-.2-.2-.2-.5 0-.7.2-.2.5-.2.7 0l5 5c.2.2.2.5 0 .7-.2.2-.5.2-.7 0z"/><path d="M16.2 8.2l-5 5c-.2.2-.2.5 0 .7.2.2.5.2.7 0l5-5c.2-.2.2-.5 0-.7-.2-.2-.5-.2-.7 0z"/><path d="M16.6 9H4.4c-.2 0-.4-.2-.4-.5s.2-.5.4-.5h12.1c.3 0 .5.2.5.5s-.2.5-.4.5z"/></g></svg><svg width="22" height="18" viewBox="0 0 22 18" id="shared_asset_images_viz-toolbar_Refresh" x="75" y="20"><path fill="#333" d="M15 4h1v4h-1zM5 4v9.3l1 .2V4z"/><path fill="#333" d="M6 14l-1-.8V4h1z"/><path d="M10.5 1C7.5 1 5 2.3 5 4s2.5 3 5.5 3S16 5.7 16 4s-2.5-3-5.5-3zm0 5C8 6 6 5.1 6 4s2-2 4.5-2 4.5.9 4.5 2-2 2-4.5 2zM9 14.9c-1.9-.3-3-1.1-3-1.7H5c0 1.3 1.7 2.3 4 2.6v-.9zM16.06 12l3.37-1.99c.15-.09.34.01.34.19v3.36c0 .15-.15.26-.29.21l-3.37-1.37c-.18-.06-.2-.3-.05-.4z" fill="#333"/><path d="M11.93 10.46C12.66 9.57 13.76 9 15 9c2.16 0 3.91 1.72 3.99 3.86h-1.08A2.914 2.914 0 0 0 15 10.08c-.89 0-1.67.41-2.21 1.04a.54.54 0 0 1-.98-.31c0-.17.04-.24.12-.35zM13.94 14l-3.37 1.99a.222.222 0 0 1-.34-.19v-3.36c0-.15.15-.26.29-.21l3.37 1.37c.18.06.21.3.05.4z" fill="#333"/><path d="M18.07 15.55A3.98 3.98 0 0 1 15 17c-2.16 0-3.91-1.72-3.99-3.86h1.08A2.914 2.914 0 0 0 15 15.92c.89 0 1.67-.41 2.21-1.04a.54.54 0 0 1 .98.31c.01.18-.03.24-.12.36z" fill="#333"/></svg><svg viewBox="0 0 22 18" width="22" height="18" id="shared_asset_images_viz-toolbar_Revert" x="50" y="20"><g fill="#333"><path d="M4.5 16c.3 0 .5-.2.5-.5v-14c0-.3-.2-.5-.5-.5s-.5.2-.5.5v14c0 .3.2.5.5.5zM6.8 8.8l5-5c.2-.2.2-.5 0-.7-.2-.2-.5-.2-.7 0l-5 5c-.1.2-.1.5.1.7.2.2.4.2.6 0z"/><path d="M6.8 8.2l5 5c.2.2.2.5 0 .7-.2.2-.5.2-.7 0l-5-5c-.1-.2-.1-.5.1-.7.2-.2.4-.2.6 0z"/><path d="M6.4 9h12.1c.3 0 .5-.2.5-.5s-.2-.5-.4-.5H6.4c-.2 0-.4.2-.4.5s.2.5.4.5z"/></g></svg><svg viewBox="0 0 22 18" width="22" height="18" id="shared_asset_images_viz-toolbar_Share" x="25" y="20"><g fill="#333"><path d="M15 2c1.1 0 2 .9 2 2s-.9 2-2 2-2-.9-2-2 .9-2 2-2m0-1c-1.7 0-3 1.3-3 3s1.3 3 3 3 3-1.3 3-3-1.3-3-3-3zM7 7c1.1 0 2 .9 2 2s-.9 2-2 2-2-.9-2-2 .9-2 2-2m0-1C5.3 6 4 7.3 4 9s1.3 3 3 3 3-1.3 3-3-1.3-3-3-3zM15 12c1.1 0 2 .9 2 2s-.9 2-2 2-2-.9-2-2 .9-2 2-2m0-1c-1.7 0-3 1.3-3 3s1.3 3 3 3 3-1.3 3-3-1.3-3-3-3z"/><path d="M13.1 5.5L9.2 8l-.5-.8 3.8-2.6zM13.1 12.3L9.2 9.7l-.5.9 3.8 2.5z"/></g></svg><svg viewBox="0 0 22 18" width="22" height="18" id="shared_asset_images_viz-toolbar_Share_White" x="350" y="20"><g fill="#FFF"><path d="M15 2c1.1 0 2 .9 2 2s-.9 2-2 2-2-.9-2-2 .9-2 2-2m0-1c-1.7 0-3 1.3-3 3s1.3 3 3 3 3-1.3 3-3-1.3-3-3-3zM7 7c1.1 0 2 .9 2 2s-.9 2-2 2-2-.9-2-2 .9-2 2-2m0-1C5.3 6 4 7.3 4 9s1.3 3 3 3 3-1.3 3-3-1.3-3-3-3zM15 12c1.1 0 2 .9 2 2s-.9 2-2 2-2-.9-2-2 .9-2 2-2m0-1c-1.7 0-3 1.3-3 3s1.3 3 3 3 3-1.3 3-3-1.3-3-3-3z"/><path d="M13.1 5.5L9.2 8l-.5-.8 3.8-2.6zM13.1 12.3L9.2 9.7l-.5.9 3.8 2.5z"/></g></svg><svg viewBox="0 0 22 18" width="22" height="18" id="shared_asset_images_viz-toolbar_Subscribe" x="325" y="20"><path fill="#333" d="M21 11h-3V8h-2v3h-3v2h3v3h2v-3h3zM9.5 8.4L1.3 2l.6-.7 7.6 5.8 7.7-5.8.6.8z"/><path d="M11 12H2V2h15v4h1V2c0-.6-.4-1-1-1H2c-.6 0-1 .4-1 1v10c0 .6.4 1 1 1h9v-1z" fill="#333"/></svg><svg id="shared_asset_images_viz-toolbar_Twitter_White" width="18" height="18" viewBox="0 0 18 18" x="275" y="40"><style>.cnst0{fill:#FFF}</style><path class="cnst0" d="M17.5 3.7c-.6.3-1.4.6-1.9.6.7-.5 1.4-1.1 1.6-1.9-.8.5-1.5.7-2.4.8-.6-.7-1.5-1.2-2.6-1.2-1.9 0-3.5 1.6-3.5 3.5 0 .3 0 .6.1.8-2.9 0-5.6-1.4-7.2-3.6-.4.5-.6 1.1-.6 1.8 0 1.2.6 2.3 1.6 2.9C2 7.4 1.4 7.2 1 7c0 1.7 1.2 3 2.8 3.5-.3.1-.6.1-.8.1s-.6 0-.7-.1c.6 1.3 1.7 2.3 3.3 2.5-1.2.9-2.7 1.5-4.3 1.5H.5c1.6 1 3.4 1.6 5.3 1.6 6.5 0 9.9-5.3 9.9-9.9v-.6c.8-.6 1.3-1.1 1.8-1.9z"/></svg><svg viewBox="0 0 22 18" width="22" height="18" id="shared_asset_images_viz-toolbar_Undo" x="250" y="20"><g fill="#333"><path d="M4.8 8.8l5-5c.2-.2.2-.5 0-.7-.2-.1-.5-.1-.7.1l-5 5c-.1.1-.1.4 0 .6.2.2.5.2.7 0z"/><path d="M4.8 8.2l5 5c.2.2.2.5 0 .7-.2.2-.5.2-.7 0l-5-5c-.1-.2-.1-.5.1-.7.1-.2.4-.2.6 0z"/><path d="M4.4 9h12.1c.3 0 .5-.2.5-.5s-.2-.5-.4-.5H4.4c-.2 0-.4.2-.4.5s.2.5.4.5z"/></g></svg><svg viewBox="0 0 18 18" width="18" height="18" id="shared_asset_images_viz-toolbar_Windows_White" x="295" y="40"><path fill="#FFF" d="M8 14.8l-7-.9V9h7zM17 8H9V2.1L17 1zM8 8H1V3.1l7-.8zM17 16l-8-1.1V9h8z"/></svg></svg>